<svg width="37" height="35" viewBox="0 0 37 35" fill="none" xmlns="http://www.w3.org/2000/svg">
<path d="M15.8465 0V20.2408H21.1535V0H15.8465ZM5.41766 5.12482C2.06981 8.2917 0 12.6675 0 17.5C0 27.165 8.28273 35 18.5 35C28.7173 35 37 27.165 37 17.5C37 12.6675 34.9302 8.2917 31.5823 5.12482L27.8561 8.64961C30.2506 10.9146 31.7314 14.044 31.7314 17.5C31.7314 24.4119 25.8069 30.0162 18.5 30.0162C11.1931 30.0162 5.26861 24.4119 5.26861 17.5C5.26861 14.044 6.74939 10.9146 9.14387 8.64961L5.41766 5.12482Z" fill="#2D74BB"/>
</svg>
