<svg width="37" height="37" viewBox="0 0 37 37" fill="none" xmlns="http://www.w3.org/2000/svg">
<path d="M18.5 14.6111C19.3937 14.6111 20.2787 14.4351 21.1044 14.0931C21.9301 13.7511 22.6803 13.2498 23.3123 12.6178C23.9442 11.9859 24.4455 11.2356 24.7875 10.4099C25.1295 9.58424 25.3056 8.69927 25.3056 7.80556C25.3056 6.91184 25.1295 6.02687 24.7875 5.20118C24.4455 4.37549 23.9442 3.62526 23.3123 2.9933C22.6803 2.36135 21.9301 1.86005 21.1044 1.51804C20.2787 1.17603 19.3937 1 18.5 1C16.6951 1 14.964 1.71701 13.6877 2.9933C12.4115 4.26959 11.6944 6.00061 11.6944 7.80556C11.6944 9.6105 12.4115 11.3415 13.6877 12.6178C14.964 13.8941 16.6951 14.6111 18.5 14.6111ZM1 34.8333V36H36V34.8333C36 30.4778 36 28.3 35.1522 26.6356C34.4066 25.1721 33.2168 23.9823 31.7533 23.2367C30.0889 22.3889 27.9111 22.3889 23.5556 22.3889H13.4444C9.08889 22.3889 6.91111 22.3889 5.24667 23.2367C3.78325 23.9823 2.59345 25.1721 1.84778 26.6356C1 28.3 1 30.4778 1 34.8333Z" fill="#2D74BB" stroke="#2D74BB" stroke-width="2" stroke-linecap="round" stroke-linejoin="round"/>
</svg>
